<svg width="95" height="26" viewBox="0 0 95 26" fill="none" xmlns="http://www.w3.org/2000/svg">
<g clip-path="url(#clip0_564_14502)">
<path d="M16.6084 10.7771H16.5281V10.3735C16.5598 10.5081 16.5852 10.6426 16.6084 10.7771Z" fill="#01AC4C"/>
<path d="M16.6084 10.7771H16.5281V10.3735C16.5598 10.5081 16.5852 10.6426 16.6084 10.7771Z" fill="#01AC4C"/>
<path d="M36.4594 0C38.2033 0 39.5985 1.40933 39.5985 3.13469C39.5985 4.86005 38.2033 6.26938 36.4594 6.26938C34.7155 6.26938 33.3901 4.86005 33.3901 3.13469C33.3901 1.40933 34.7853 0 36.4594 0Z" fill="#01AC4C"/>
<path d="M39.144 8.49011H33.8425V26H39.144V8.49011Z" fill="#01AC4C"/>
<path d="M74.426 8.98341C74.426 3.34609 71.1137 0 65.7424 0C61.2442 0 57.0947 3.59379 57.0947 9.22897C57.0947 14.8642 61.3498 18.5647 66.1271 18.5647C70.5218 18.5647 73.2761 16.0279 74.1132 13L69.6847 11.7316C69.1964 13.1068 68.1162 14.0207 66.1969 14.0207C64.1401 14.0207 62.3603 12.6135 62.2567 10.6404H74.3225C74.3563 10.5337 74.426 9.72438 74.426 8.98555V8.98341ZM62.3603 7.18545C62.466 5.88288 63.5821 4.22585 65.8122 4.22585C68.3234 4.22585 69.2302 5.84658 69.3021 7.18545H62.3603Z" fill="#01AC4C"/>
<path d="M85.27 12.259C85.3398 13.457 86.1769 14.6186 87.9905 14.6186C89.3497 14.6186 90.0135 13.8798 90.0135 13.1046C90.0135 12.4704 89.5949 11.943 88.3055 11.6611L86.3185 11.2042C82.6214 10.3949 81.1565 8.28088 81.1565 5.81455C81.1544 2.60726 83.9446 0 87.8151 0C92.8375 0 94.5815 3.17099 94.7569 5.21452L90.3622 6.02382C90.2227 4.86219 89.4913 3.87566 87.8869 3.87566C86.8765 3.87566 86.0035 4.47355 86.0035 5.38962C86.0035 6.12845 86.5954 6.55125 87.3627 6.69218L89.6647 7.14915C93.2561 7.88798 95 10.0724 95 12.6455C95 15.6393 92.734 18.5647 88.0941 18.5647C82.6531 18.5647 80.9092 15.0072 80.7697 13.0683L85.2679 12.259H85.27Z" fill="#01AC4C"/>
<path d="M50.7891 0H45.4919C45.4792 0.0149474 45.5109 15.3617 45.5109 15.3745C45.5384 17.1725 45.3946 18.9939 45.6314 20.7663C46.0584 23.9821 49.1234 26.0534 51.8038 25.9979C52.996 25.9744 93.8099 25.9616 95.0021 25.9552V20.6552H53.2961C51.603 20.6552 50.7955 19.8438 50.7912 18.1441C50.7912 17.2088 50.7912 0.941689 50.7912 0L50.7891 0Z" fill="#01AC4C"/>
<path d="M22.191 26V8.26807L15.8559 26H11.4718L5.13662 8.4752V26H0V0H7.05387L13.7315 16.5703L20.0666 0H27.4989V26H22.191Z" fill="#01AC4C"/>
</g>
<defs>
<clipPath id="clip0_564_14502">
<rect width="95" height="26" fill="white"/>
</clipPath>
</defs>
</svg>
