<svg width="86" height="86" viewBox="0 0 86 86" fill="none" xmlns="http://www.w3.org/2000/svg">
<g filter="url(#filter0_dd_2060_16501)">
<rect x="18" y="10" width="50" height="50" rx="17" fill="white"/>
<path d="M54.6673 28.334H31.334V36.2507H54.6673V28.334Z" fill="#003F32"/>
<path d="M55.5003 30H30.5003C30.0401 30 29.667 30.3731 29.667 30.8333V42.5C29.667 42.9602 30.0401 43.3333 30.5003 43.3333H55.5003C55.9606 43.3333 56.3337 42.9602 56.3337 42.5V30.8333C56.3337 30.3731 55.9606 30 55.5003 30Z" fill="#FF8C2F"/>
<path d="M47.1673 25H32.1673C31.7071 25 31.334 25.3731 31.334 25.8333V30.8333C31.334 31.2936 31.7071 31.6667 32.1673 31.6667H47.1673C47.6276 31.6667 48.0007 31.2936 48.0007 30.8333V25.8333C48.0007 25.3731 47.6276 25 47.1673 25Z" fill="#017A36"/>
<path d="M46.0007 38.334H33.334C32.2294 38.334 31.334 39.2294 31.334 40.334V43.0006C31.334 44.1052 32.2294 45.0007 33.334 45.0007H46.0007C47.1052 45.0007 48.0007 44.1052 48.0007 43.0007V40.334C48.0007 39.2294 47.1052 38.334 46.0007 38.334Z" fill="#017A36"/>
<path d="M52.1673 35.0007C52.6276 35.0007 53.0007 34.6276 53.0007 34.1673C53.0007 33.7071 52.6276 33.334 52.1673 33.334C51.7071 33.334 51.334 33.7071 51.334 34.1673C51.334 34.6276 51.7071 35.0007 52.1673 35.0007Z" fill="#57C35E"/>
<path d="M48.8333 35.0007C49.2936 35.0007 49.6667 34.6276 49.6667 34.1673C49.6667 33.7071 49.2936 33.334 48.8333 33.334C48.3731 33.334 48 33.7071 48 34.1673C48 34.6276 48.3731 35.0007 48.8333 35.0007Z" fill="#116311"/>
</g>
<defs>
<filter id="filter0_dd_2060_16501" x="0" y="0" width="86" height="86" filterUnits="userSpaceOnUse" color-interpolation-filters="sRGB">
<feFlood flood-opacity="0" result="BackgroundImageFix"/>
<feColorMatrix in="SourceAlpha" type="matrix" values="0 0 0 0 0 0 0 0 0 0 0 0 0 0 0 0 0 0 127 0" result="hardAlpha"/>
<feOffset/>
<feGaussianBlur stdDeviation="0.5"/>
<feColorMatrix type="matrix" values="0 0 0 0 0 0 0 0 0 0.270588 0 0 0 0 0.215686 0 0 0 0.8 0"/>
<feBlend mode="normal" in2="BackgroundImageFix" result="effect1_dropShadow_2060_16501"/>
<feColorMatrix in="SourceAlpha" type="matrix" values="0 0 0 0 0 0 0 0 0 0 0 0 0 0 0 0 0 0 127 0" result="hardAlpha"/>
<feMorphology radius="6" operator="erode" in="SourceAlpha" result="effect2_dropShadow_2060_16501"/>
<feOffset dy="8"/>
<feGaussianBlur stdDeviation="12"/>
<feColorMatrix type="matrix" values="0 0 0 0 0 0 0 0 0 0 0 0 0 0 0 0 0 0 0.16 0"/>
<feBlend mode="normal" in2="effect1_dropShadow_2060_16501" result="effect2_dropShadow_2060_16501"/>
<feBlend mode="normal" in="SourceGraphic" in2="effect2_dropShadow_2060_16501" result="shape"/>
</filter>
</defs>
</svg>
