<svg width="116" height="82" viewBox="0 0 116 82" fill="none" xmlns="http://www.w3.org/2000/svg">
<g clipPath="url(#clip0_2718_17291)">
<path d="M92.9058 36.5737C94.8908 38.1627 96.5776 39.5839 98.3483 40.8886C98.8469 41.2567 99.7276 41.6016 100.17 41.3965C100.585 41.2055 100.846 40.2689 100.855 39.6585C100.916 34.6026 100.837 29.5422 100.944 24.491C100.976 23.0092 100.441 22.3336 99.1358 21.7884C86.9879 16.7046 74.8633 11.565 62.7387 6.43925C61.6343 5.97328 60.5486 5.46537 58.9876 4.76641C62.6595 3.5642 65.898 2.67419 69.0014 1.43936C71.8345 0.31171 74.3274 0.567995 77.1419 1.69565C89.3085 6.55575 101.559 11.2108 113.8 15.8892C115.1 16.3878 115.585 17.1147 115.58 18.4707C115.547 32.3613 115.533 46.252 115.585 60.1473C115.589 61.9646 114.97 62.9431 113.297 63.7306C100.701 69.6671 88.1668 75.7294 75.5762 81.6752C74.812 82.034 73.5865 82.0713 72.8363 81.7125C58.8804 74.9885 44.9571 68.19 31.0432 61.3681C30.3116 61.0093 29.2911 60.3849 29.1933 59.7605C28.9417 58.1809 29.0954 56.5313 29.2166 54.9191C29.2306 54.7327 30.088 54.495 30.5586 54.4857C32.9397 54.4391 35.3255 54.4065 37.7066 54.4811C39.8082 54.5463 41.509 53.9452 42.4689 51.9741C43.4614 49.9425 42.9535 48.1438 41.4297 46.5688C41.3179 46.4523 41.262 46.2753 40.9591 45.7208C42.9302 45.7208 44.6869 45.7813 46.4389 45.7068C48.5778 45.6089 50.1434 44.0945 50.5488 41.8765C50.8797 40.0639 49.7613 37.953 47.9534 37.2028C47.2777 36.9232 46.4949 36.8393 45.7586 36.802C44.3654 36.7321 42.9721 36.7601 41.5742 36.7368C41.4763 36.7368 41.3785 36.639 41.0942 36.4898C41.4437 36.0332 41.7979 35.6231 42.1007 35.1758C43.0886 33.7126 43.2936 32.1563 42.4828 30.5627C41.686 28.9923 40.4046 28.0884 38.5966 28.079C35.9825 28.0651 33.3637 28.0185 30.7496 28.079C29.5148 28.107 28.9789 27.7668 29.0069 26.4202C29.0815 22.9347 29.0488 19.4446 29.0116 15.9591C28.9976 14.7848 29.4775 14.1884 30.6192 13.8575C33.2333 13.0933 35.7961 12.1521 38.4149 11.4112C39.1278 11.2108 40.0551 11.2388 40.7354 11.523C54.6494 17.3337 68.5354 23.2096 82.4447 29.0343C83.5164 29.4816 83.7401 30.2318 83.7773 31.2057C83.9451 35.9074 84.0849 40.6137 84.3225 45.3154C84.3598 46.0236 84.8537 46.7086 85.138 47.4029C85.7438 46.9556 86.5312 46.6341 86.9227 46.0469C88.9263 43.0088 90.8275 39.9008 92.9058 36.597V36.5737ZM56.6997 57.6916C56.4853 57.8733 55.805 58.2088 55.833 58.4744C55.8889 59.0103 56.2011 59.7512 56.6344 59.9749C59.9894 61.6943 63.3864 63.3345 66.8066 64.9188C67.1934 65.1006 67.8178 64.7697 68.3303 64.6765C68.2092 64.1127 68.2651 63.2087 67.9389 63.0363C64.4395 61.219 60.8794 59.5182 57.3334 57.7941C57.2355 57.7475 57.1051 57.7568 56.7043 57.6916H56.6997ZM68.6705 71.7733L69.1272 70.6503C68.6658 70.5059 68.1719 70.422 67.7432 70.217C64.309 68.5628 60.9027 66.8526 57.4452 65.259C57.0491 65.0773 56.3642 65.5293 55.8097 65.6877C56.024 66.2236 56.0846 67.053 56.4713 67.2487C59.9056 69.0241 63.3817 70.7249 66.9045 72.3278C67.3238 72.5189 68.0741 71.9783 68.6752 71.778L68.6705 71.7733Z" fill="#FF8C2F"/>
<path d="M96.5315 23.3905C92.7245 24.9282 89.3601 26.3121 85.9725 27.6262C85.6091 27.766 85.0592 27.6029 84.6538 27.4351C71.1359 21.7409 57.6274 16.0281 44.1188 10.3153C43.9697 10.25 43.8439 10.1289 43.4292 9.83998C44.3006 9.52778 44.9622 9.2715 45.6379 9.04783C48.4477 8.1252 51.2389 7.16064 54.0767 6.33587C54.8362 6.11686 55.8287 6.09822 56.5417 6.39644C69.3746 11.7691 82.1795 17.207 94.9891 22.6309C95.3572 22.7847 95.7067 22.9851 96.5268 23.3905H96.5315Z" fill="#FF8C2F"/>
<path d="M20.927 47.4208C26.5653 47.4208 32.1989 47.4161 37.8372 47.4208C39.8921 47.4208 41.0757 48.3854 41.0617 49.9976C41.0477 51.5959 39.8688 52.5325 37.7952 52.5325C26.5793 52.5418 15.3633 52.5418 4.14732 52.5325C2.10636 52.5325 0.894832 51.54 0.908811 49.951C0.92279 48.3667 2.13432 47.4208 4.18926 47.4161C9.76696 47.4115 15.3447 47.4161 20.927 47.4161V47.4208Z" fill="#FF8C2F"/>
<path d="M20.9226 35.0765C15.3449 35.0765 9.76722 35.0812 4.18486 35.0765C2.12992 35.0765 0.918395 34.1213 0.904416 32.5369C0.890437 30.9526 2.10663 29.9601 4.14293 29.9601C15.3589 29.9508 26.5749 29.9508 37.7862 29.9601C39.8644 29.9601 41.0387 30.8967 41.0526 32.495C41.0666 34.098 39.8737 35.0718 37.8281 35.0718C32.1898 35.0812 26.5562 35.0718 20.9179 35.0718L20.9226 35.0765Z" fill="#FF8C2F"/>
<path d="M28.4243 43.8114C22.7301 43.8114 17.0313 43.8067 11.3371 43.8161C9.92052 43.8161 8.78821 43.159 8.71365 41.817C8.66239 40.9037 9.34737 39.8693 9.92518 39.0445C10.1628 38.709 10.9923 38.6904 11.5514 38.6904C22.9445 38.6717 34.3328 38.6671 45.7259 38.6857C47.5059 38.6857 48.6662 39.7015 48.7034 41.174C48.7454 42.707 47.5432 43.7974 45.6839 43.8067C39.9292 43.8254 34.1744 43.8161 28.4196 43.8067L28.4243 43.8114Z" fill="#FF8C2F"/>
<path d="M86.6016 41.2616C86.6016 38.8013 86.5597 36.3409 86.6109 33.8806C86.7134 29.0252 85.7908 30.3345 90.2269 28.4986C92.8876 27.3943 95.5762 26.3458 98.4746 25.1855V37.9951C96.8344 36.6904 95.4691 35.5861 94.0851 34.505C92.5195 33.2795 92.1793 33.3401 91.1122 35.0176C89.7656 37.1424 88.4282 39.2766 87.0862 41.4107C86.9231 41.3641 86.7647 41.3129 86.6016 41.2663V41.2616Z" fill="#FF8C2F"/>
</g>
<defs>
<clipPath id="clip0_2718_17291">
<rect width="114.671" height="81.2517" fill="white" transform="translate(0.908691 0.703125)"/>
</clipPath>
</defs>
</svg>
