<svg width="112" height="101" viewBox="0 0 112 101" fill="none" xmlns="http://www.w3.org/2000/svg">
<g clipPath="url(#clip0_2718_17277)">
<path d="M85.8235 84.2765C75.4976 83.9969 69.2535 91.7181 69.8686 100.259H42.2737C40.8571 88.7405 37.4881 85.3622 26.2256 84.2206V16.7617H85.8235V84.2719V84.2765ZM44.1189 54.5102C45.1814 52.3154 46.761 51.5279 48.7041 51.3229C50.0787 51.1738 50.9315 50.5028 50.7684 49.0769C50.6146 47.7396 49.6267 47.2783 48.364 47.3808C44.7527 47.665 42.0873 49.4124 40.5962 52.7069C40.0417 53.9324 39.5571 54.7012 38.0287 54.5941C36.929 54.5148 36.1788 55.307 36.1694 56.4719C36.1555 57.7254 36.9243 58.3731 38.1172 58.4989C38.6857 58.5595 39.2635 58.5082 39.832 58.5082C41.2299 62.5995 43.8254 65.2276 48.1449 65.5118C53.2008 65.8473 56.2669 63.0934 57.8838 58.6061H67.9255C66.8724 60.6284 65.3393 61.5277 63.2937 61.6862C62.0076 61.7887 61.1922 62.4597 61.2714 63.8017C61.3506 65.1763 62.3338 65.838 63.55 65.5817C65.2182 65.2275 67.1147 64.92 68.3728 63.9135C70.0597 62.5668 71.2339 60.5725 72.6272 58.8577C72.5479 58.5455 72.7763 58.5129 73.0046 58.5175C74.4491 58.5595 75.8424 58.3591 75.8936 56.5558C75.9449 54.7199 74.547 54.5568 73.1071 54.4636C72.6784 54.4356 72.0587 53.9883 71.9002 53.5875C70.3066 49.5988 67.4269 47.3622 63.1213 47.3948C58.8996 47.4274 56.0665 49.6408 54.5101 53.5689C54.3517 53.9743 53.7226 54.4496 53.2986 54.4636C50.3443 54.5428 47.3854 54.5055 44.1096 54.5055L44.1189 54.5102Z" fill="#004537"/>
<path d="M22.1107 17.0046V28.4303C21.6308 28.4815 21.1881 28.5654 20.7454 28.5654C16.0344 28.5747 11.3281 28.5887 6.61713 28.5654C2.63306 28.5514 0.228642 26.1283 0.214663 22.1396C0.196024 17.1397 0.196024 12.1398 0.214663 7.14461C0.228642 3.18385 2.68898 0.676911 6.61713 0.676911C39.58 0.667592 72.543 0.667592 105.506 0.676911C109.332 0.676911 111.824 3.20248 111.843 7.03278C111.871 12.1492 111.876 17.2655 111.843 22.3773C111.82 26.0352 109.359 28.5328 105.72 28.5607C100.506 28.6027 95.2918 28.57 89.8958 28.57C89.8958 24.7444 89.8725 21.1005 89.9331 17.4566C89.9377 17.0978 90.5575 16.7809 90.7858 16.3849C91.1819 15.6859 91.8855 14.8425 91.741 14.2367C91.5919 13.6077 90.632 13.0904 89.9238 12.7177C89.509 12.4986 88.8986 12.6571 88.3767 12.6571C66.8068 12.6571 45.2416 12.6571 23.6717 12.6571C23.4993 12.6571 23.3223 12.6617 23.1498 12.6571C21.8638 12.6151 20.4192 12.7316 20.3354 14.26C20.2841 15.164 21.1788 16.1193 21.6494 17.0512C21.8032 17.0372 21.9616 17.0186 22.1154 17.0046H22.1107Z" fill="#004537"/>
<path d="M37.9954 100.362C34.6218 100.362 31.318 100.469 28.0329 100.274C27.3666 100.236 26.2622 99.0854 26.2203 98.4004C26.0292 95.1712 26.1364 91.9234 26.1364 88.7222C32.646 86.9888 39.1371 93.2841 37.9954 100.362Z" fill="#004537"/>
<path d="M85.9161 88.5232C85.9161 91.9202 85.9767 95.2146 85.8835 98.509C85.8509 99.7019 84.9702 100.364 83.754 100.373C80.5667 100.392 77.3748 100.382 73.9872 100.382C73.5166 97.0505 74.3786 94.2314 76.5314 91.813C78.9917 89.0451 82.1277 88.0945 85.9208 88.5279L85.9161 88.5232Z" fill="#004537"/>
<path d="M44.1367 58.5996H53.4841C52.6034 60.6126 51.103 61.5352 49.1552 61.6471C46.9605 61.7729 45.3063 60.785 44.1367 58.5996Z" fill="#004537"/>
<path d="M67.7115 54.3895H58.5737C59.543 52.3765 61.062 51.5331 63.0191 51.4073C65.102 51.2768 66.7609 52.3345 67.7115 54.3895Z" fill="#004537"/>
</g>
<defs>
<clipPath id="clip0_2718_17277">
<rect width="111.666" height="99.7182" fill="white" transform="translate(0.200195 0.675781)"/>
</clipPath>
</defs>
</svg>
