<svg width="90" height="114" viewBox="0 0 90 114" fill="none" xmlns="http://www.w3.org/2000/svg">
<g clipPath="url(#clip0_2718_17305)">
<path d="M37.0675 17.0348C34.4907 16.9789 32.911 16.2287 32.254 13.8942C31.7368 16.3079 30.0406 16.9183 27.4964 17.0581C29.8309 18.4141 30.1944 20.1102 29.365 22.6311C31.4479 20.8744 33.158 21.0002 35.2595 22.5706C34.3276 20.017 34.8541 18.4327 37.0675 17.0348ZM37.0675 17.0348C34.4907 16.9789 32.911 16.2287 32.254 13.8942C31.7368 16.3079 30.0406 16.9183 27.4964 17.0581C29.8309 18.4141 30.1944 20.1102 29.365 22.6311C31.4479 20.8744 33.158 21.0002 35.2595 22.5706C34.3276 20.017 34.8541 18.4327 37.0675 17.0348ZM37.0675 17.0348C34.4907 16.9789 32.911 16.2287 32.254 13.8942C31.7368 16.3079 30.0406 16.9183 27.4964 17.0581C29.8309 18.4141 30.1944 20.1102 29.365 22.6311C31.4479 20.8744 33.158 21.0002 35.2595 22.5706C34.3276 20.017 34.8541 18.4327 37.0675 17.0348ZM37.0675 17.0348C34.4907 16.9789 32.911 16.2287 32.254 13.8942C31.7368 16.3079 30.0406 16.9183 27.4964 17.0581C29.8309 18.4141 30.1944 20.1102 29.365 22.6311C31.4479 20.8744 33.158 21.0002 35.2595 22.5706C34.3276 20.017 34.8541 18.4327 37.0675 17.0348ZM67.4349 0.283093C59.9421 0.269114 52.4493 0.278434 44.9564 0.278434C37.4636 0.278434 29.9661 0.269114 22.4732 0.283093C18.3121 0.283093 16.4063 2.19358 16.4016 6.35006C16.3923 13.8429 16.4016 21.3357 16.4016 28.8286C16.4016 33.1948 18.2981 35.1192 22.6503 35.1332C26.8301 35.1472 31.0145 35.2031 35.1943 35.1006C36.6528 35.0633 37.5009 35.4501 38.1998 36.7827C39.7142 39.6578 41.401 42.435 43.0459 45.2402C44.3041 47.3883 45.6228 47.3883 46.8902 45.2262C48.5957 42.3232 50.3151 39.4248 51.9134 36.4659C52.5005 35.3848 53.2135 35.0633 54.3924 35.0819C58.7446 35.1472 63.1014 35.1192 67.4582 35.1006C71.5821 35.0866 73.5206 33.1342 73.5252 28.987C73.5345 21.4336 73.5345 13.8802 73.5252 6.33142C73.5159 2.1796 71.6101 0.287753 67.4349 0.283093ZM41.7272 17.1653C38.8196 19.2948 38.0414 21.7644 39.1178 25.1847C39.6676 26.9134 37.9761 28.1529 36.513 27.0998C33.596 24.9983 30.9959 24.9564 28.0742 27.0905C26.6716 28.1157 25.3203 27.0905 25.4042 24.8166C27.1097 21.7272 25.5626 19.2715 22.7249 17.0302C21.4015 15.9864 22.1051 14.0293 23.8199 14.0526C27.4591 14.1038 29.5187 12.5149 30.6697 9.11794C31.2568 7.38918 33.3304 7.3985 33.9129 9.12726C35.0638 12.5335 37.1421 14.0899 40.7673 14.0573C42.552 14.0433 43.1997 16.0842 41.7272 17.1653ZM66.4657 17.1653C63.5581 19.2948 62.7799 21.7644 63.8563 25.1847C64.4061 26.9134 62.7146 28.1529 61.2515 27.0998C58.3345 24.9983 55.7344 24.9564 52.8127 27.0905C51.4101 28.1157 50.0588 27.0905 50.1427 24.8166C51.8482 21.7272 50.3011 19.2715 47.4634 17.0302C46.14 15.9864 46.8436 14.0293 48.5584 14.0526C52.1976 14.1038 54.2572 12.5149 55.4082 9.11794C55.9953 7.38918 58.0689 7.3985 58.6514 9.12726C59.8023 12.5335 61.8806 14.0899 65.5058 14.0573C67.2905 14.0433 67.9429 16.0842 66.4657 17.1653ZM32.254 13.8942C31.7368 16.3079 30.0406 16.9183 27.4964 17.0581C29.8309 18.4141 30.1944 20.1102 29.365 22.6311C31.4479 20.8744 33.158 21.0002 35.2595 22.5706C34.3276 20.017 34.8541 18.4327 37.0675 17.0348C34.4907 16.9789 32.911 16.2287 32.254 13.8942ZM37.0675 17.0348C34.4907 16.9789 32.911 16.2287 32.254 13.8942C31.7368 16.3079 30.0406 16.9183 27.4964 17.0581C29.8309 18.4141 30.1944 20.1102 29.365 22.6311C31.4479 20.8744 33.158 21.0002 35.2595 22.5706C34.3276 20.017 34.8541 18.4327 37.0675 17.0348ZM37.0675 17.0348C34.4907 16.9789 32.911 16.2287 32.254 13.8942C31.7368 16.3079 30.0406 16.9183 27.4964 17.0581C29.8309 18.4141 30.1944 20.1102 29.365 22.6311C31.4479 20.8744 33.158 21.0002 35.2595 22.5706C34.3276 20.017 34.8541 18.4327 37.0675 17.0348Z" fill="#01AC4C"/>
<path d="M89.8013 92.525C89.6568 87.3806 86.0688 84.0303 80.9291 84.0116C76.2228 83.993 71.5165 84.0396 66.8102 83.9744C66.237 83.9744 65.4821 83.6202 65.1373 83.1775C62.6211 79.9111 59.3313 78.2382 55.2307 78.2196C48.3763 78.187 41.5172 78.1823 34.6627 78.2196C30.6367 78.2429 27.3795 79.8645 24.8773 83.0657C24.4998 83.5503 23.6984 83.9604 23.0879 83.9697C18.4981 84.0443 13.9083 84.0023 9.31843 84.007C3.66618 84.0163 0.152744 87.4459 0.101487 93.0748C0.0548899 97.5482 0.0781885 102.021 0.0968274 106.495C0.106147 108.685 0.600078 109.17 2.76219 109.174C8.74994 109.183 14.733 109.179 20.7161 109.179H22.5754C22.6173 109.64 22.6499 109.868 22.6592 110.097C22.7431 113.475 22.9062 113.638 26.2332 113.638H62.4953C65.462 113.638 67.0975 112.152 67.402 109.179H69.4103C75.3934 109.179 81.3811 109.188 87.3642 109.174C89.2328 109.17 89.8106 108.638 89.8246 106.816C89.8572 102.054 89.9317 97.2872 89.8013 92.525ZM22.6965 105.526H10.7443C10.7443 102.879 10.7443 100.232 10.7396 97.5854C10.7396 97.0076 10.94 96.276 10.6651 95.88C10.1991 95.2136 9.4722 94.4355 8.77324 94.3423C8.33523 94.2863 7.33805 95.3627 7.29145 95.9871C7.10506 98.3543 7.20757 100.745 7.20291 103.126C7.19825 103.871 7.20291 104.617 7.20291 105.507H3.6755C3.6755 103.005 3.66618 100.53 3.6755 98.0514C3.68016 96.0198 3.62424 93.9835 3.75937 91.9611C3.90849 89.7058 5.62327 87.7068 7.82732 87.6369C12.8039 87.4738 17.7852 87.5857 22.6919 87.5857V105.526H22.6965ZM63.7301 108.284V110.004H56.8523V104.403C56.8523 101.383 56.843 98.3589 56.8523 95.3394C56.8616 94.1745 56.3863 93.387 55.1702 93.3497C53.8654 93.3171 53.3296 94.1139 53.3342 95.3627C53.3389 100.181 53.3342 104.999 53.3342 109.957H36.5965V102.492C36.5918 100.106 36.5918 97.7252 36.5918 95.3441C36.5965 94.0953 36.0187 93.2752 34.7419 93.3218C33.563 93.3637 33.0691 94.1745 33.0691 95.3441C33.0877 99.5239 33.0691 103.708 33.0691 107.893V109.948H26.2892C26.2565 109.393 26.196 108.839 26.196 108.284C26.1866 102.418 26.1773 96.5463 26.196 90.6797C26.2099 85.144 29.5417 81.7983 35.11 81.7703C41.6756 81.7377 48.2411 81.7377 54.802 81.7703C60.3658 81.7983 63.7021 85.144 63.7208 90.6797C63.7441 96.551 63.7208 102.418 63.7208 108.284H63.7301ZM86.1434 105.596H82.7278C82.7278 103.075 82.807 100.596 82.6998 98.126C82.6393 96.6535 83.4967 94.5985 81.0037 94.2304C79.6664 94.0347 79.1864 95.1484 79.1864 98.0607V105.507H67.3134V87.5297C70.4075 87.5297 73.7019 87.5297 76.9963 87.5297C78.5061 87.5297 80.0205 87.4831 81.5256 87.553C83.8648 87.6649 86.0082 89.3331 86.0921 91.5651C86.2645 96.1875 86.1434 100.819 86.1434 105.596Z" fill="#01AC4C"/>
<path d="M57.6118 62.5771C57.5792 69.562 51.9456 75.177 44.9653 75.1816C37.9105 75.1816 32.2536 69.4781 32.3095 62.4186C32.3654 55.3312 38.0083 49.8001 45.1284 49.842C52.0854 49.8793 57.6398 55.5502 57.6072 62.5771H57.6118Z" fill="#01AC4C"/>
<path d="M15.7723 83.0112C10.7258 82.9832 6.62058 78.8267 6.6299 73.757C6.63922 68.8316 10.8143 64.6425 15.735 64.6192C20.8607 64.5959 25.0871 68.8037 25.0451 73.8968C25.0032 78.9479 20.8467 83.0391 15.7723 83.0112Z" fill="#01AC4C"/>
<path d="M74.0606 83.008C69.0002 83.0034 64.8903 78.8842 64.8716 73.8051C64.853 68.8145 69.1353 64.5462 74.0932 64.6161C79.1817 64.686 83.2962 68.8192 83.2869 73.8423C83.2729 78.8981 79.1304 83.0127 74.0606 83.008Z" fill="#01AC4C"/>
<path d="M59.9977 22.5709C57.8962 21.0006 56.186 20.8748 54.1031 22.6315C54.9326 20.1106 54.5738 18.4145 52.2393 17.0585C54.7788 16.9187 56.475 16.3083 56.9922 13.8945C57.6492 16.2291 59.2288 16.9793 61.8057 17.0352C59.5923 18.4331 59.0658 20.0174 59.9977 22.5709Z" fill="#01AC4C"/>
</g>
<defs>
<clipPath id="clip0_2718_17305">
<rect width="89.8023" height="113.367" fill="white" transform="translate(0.0727539 0.273438)"/>
</clipPath>
</defs>
</svg>
