<svg width="24" height="24" viewBox="0 0 24 24" fill="none" xmlns="http://www.w3.org/2000/svg">
<path d="M23 12.2526C23 11.5049 22.9381 10.7531 22.8062 10.0175H12.2206V14.2534H18.2825C18.0309 15.6195 17.2227 16.828 16.0392 17.596V20.3445H19.6557C21.7794 18.4286 23 15.5993 23 12.2526Z" fill="black"/>
<path d="M12.2206 22.9999C15.2474 22.9999 17.8 22.0258 19.6598 20.3444L16.0433 17.5959C15.0371 18.2669 13.7381 18.6468 12.2247 18.6468C9.2969 18.6468 6.81442 16.7108 5.9237 14.1078H2.19174V16.9412C4.0969 20.6556 7.97731 22.9999 12.2206 22.9999Z" fill="black"/>
<path d="M5.91957 14.1079C5.44947 12.7417 5.44947 11.2624 5.91957 9.89623V7.06287H2.19174C0.599987 10.1711 0.599987 13.833 2.19174 16.9412L5.91957 14.1079Z" fill="black"/>
<path d="M12.2206 5.35312C13.8206 5.32887 15.367 5.91899 16.5258 7.00221L19.7299 3.86167C17.701 1.99431 15.0082 0.967674 12.2206 1.00001C7.97731 1.00001 4.0969 3.3443 2.19174 7.06284L5.91958 9.89621C6.80617 7.28919 9.29277 5.35312 12.2206 5.35312Z" fill="black"/>
</svg>
