<svg width="103" height="95" viewBox="0 0 103 95" fill="none" xmlns="http://www.w3.org/2000/svg">
<path d="M0.00372301 77.0195C0.364855 75.6075 0.677588 74.2733 1.04617 72.9577C2.9933 65.9681 5.48399 59.1787 8.42517 52.5375C10.1973 48.5387 12.1333 44.6325 14.2554 40.8153C16.7722 36.2903 19.583 31.9468 22.6284 27.7553C24.1363 25.6799 25.9456 23.8825 27.8779 22.2074C28.306 21.8368 28.8086 21.5366 29.3075 21.2624C30.7148 20.4952 32.3083 20.8362 33.3991 22.1148C34.2964 23.1636 34.8548 24.4014 35.3462 25.6725C36.1318 27.7146 36.8429 29.7862 37.6768 31.806C37.9561 32.4842 38.455 33.1031 38.9687 33.6405C39.7952 34.5077 40.8377 34.567 42.1407 33.9073C43.8831 33.0253 45.2755 31.7022 46.4892 30.1976C48.1385 28.1519 49.7729 26.0987 51.3887 24.0271C52.6322 22.4298 53.8235 20.7917 55.0484 19.1796C56.0983 17.7935 57.2673 16.515 58.7416 15.5625C59.3038 15.1993 60 15.0363 60.5212 15.5106C62.1966 17.0375 64.0841 16.9523 66.0573 16.3704C68.9352 15.5254 71.5786 14.1765 74.0879 12.5718C78.1013 9.99977 82.0663 7.36109 86.0685 4.77058C88.2092 3.38452 90.3723 2.02442 92.5428 0.686542C93.1273 0.327057 93.7528 0.00833972 94.4937 0.0157518C94.9293 0.0194578 95.1117 0.249231 94.9553 0.586479C94.6389 1.28321 94.3112 1.99106 93.857 2.59885C93.1981 3.47347 92.4125 4.25173 91.7014 5.08929C89.2256 7.99852 86.3589 10.5038 83.4289 12.9349C81.4669 14.5656 79.49 16.1888 77.42 17.6786C75.8302 18.8238 74.0916 19.7614 72.4162 20.788C72.0067 21.04 71.586 21.2698 71.1765 21.5181C69.1958 22.7188 67.0477 23.4638 64.7654 23.8603C63.9501 24.0011 63.2018 23.8418 62.5987 23.297C61.936 22.6966 61.344 22.0258 60.726 21.3773C60.5882 21.2327 60.4877 21.0511 60.35 20.9066C59.758 20.2729 59.0692 20.1172 58.3135 20.5175C57.9114 20.7324 57.5019 21.003 57.2077 21.3439C56.0127 22.7188 54.799 24.0901 53.7044 25.5428C51.895 27.9517 50.2197 30.4607 48.3991 32.8622C47.0849 34.5966 45.6813 36.2755 44.1996 37.8728C43.5443 38.5806 42.6508 39.118 41.7796 39.5627C40.6068 40.1557 39.4453 39.8184 38.3991 39.1254C37.0663 38.2397 36.2807 36.9203 35.7632 35.4601C35.2234 33.937 34.8362 32.3619 34.3299 30.8239C33.8757 29.4379 33.4177 28.0407 32.8295 26.7065C32.4497 25.843 31.787 25.1352 30.7967 24.8572C29.7357 24.557 28.8086 24.9276 27.9375 25.4724C26.1988 26.5546 24.7952 27.9888 23.4773 29.5564C20.3239 33.3144 17.9039 37.5281 15.6515 41.8419C13.8682 45.2589 12.1258 48.7092 10.5696 52.2336C8.74535 56.3658 7.07372 60.5647 5.4691 64.7859C4.11765 68.3437 3.06404 72.0089 2.20774 75.7224C2.13328 76.0522 2.04021 76.3783 1.93596 76.7007C1.9099 76.786 1.81683 76.9083 1.74609 76.912C1.19509 76.9602 0.640357 76.9824 0 77.0195H0.00372301Z" fill="#E87F2B"/>
<circle cx="69.6538" cy="65.0312" r="29" fill="#E87F2B"/>
<circle cx="73.6538" cy="62.0312" r="29" fill="#FFF4EA"/>
<path d="M78.7438 72.7012C78.7438 72.8212 78.6938 72.9312 78.5938 73.0312C78.4938 73.1313 78.3738 73.2213 78.2338 73.3013C78.1138 73.3813 77.9738 73.4513 77.8138 73.5113L77.4538 73.6613C77.2738 73.5813 77.0638 73.5113 76.8238 73.4513C76.5838 73.4113 76.3238 73.3813 76.0438 73.3613C75.7838 73.3413 75.5238 73.3213 75.2638 73.3013C75.0038 73.3013 74.7738 73.3013 74.5738 73.3013C73.6338 73.3013 72.6938 73.3213 71.7538 73.3613C70.8338 73.4213 69.9038 73.4713 68.9638 73.5113C69.1838 73.5313 69.3938 73.5413 69.5938 73.5413H70.2538C70.8338 73.5413 71.4138 73.5313 71.9938 73.5113C72.5738 73.4913 73.1538 73.4813 73.7338 73.4813C74.2538 73.4813 74.7638 73.5013 75.2638 73.5413C75.7838 73.5813 76.3038 73.6513 76.8238 73.7513C76.5238 73.8513 76.0538 73.9213 75.4138 73.9613C74.7938 74.0213 74.1338 74.0613 73.4338 74.0813C72.7538 74.1213 72.0938 74.1413 71.4538 74.1413C70.8138 74.1613 70.3138 74.1713 69.9538 74.1713L69.7138 73.8413C69.6738 73.8413 69.6338 73.8413 69.5938 73.8413C69.5738 73.8613 69.5438 73.8713 69.5038 73.8713C69.4238 73.8713 69.3438 73.8613 69.2638 73.8413C69.1838 73.8413 69.0938 73.8413 68.9938 73.8413H68.7838C68.7238 73.8413 68.6638 73.8613 68.6038 73.9013C68.4238 73.9013 68.2438 73.8913 68.0638 73.8713C67.9038 73.8513 67.7338 73.8413 67.5538 73.8413L66.9538 70.8712L67.6438 70.5112C68.4238 69.9912 69.1838 69.4612 69.9238 68.9212C70.6838 68.3612 71.3838 67.7612 72.0238 67.1212C72.6838 66.4612 73.2738 65.7612 73.7938 65.0212C74.3338 64.2612 74.7738 63.4212 75.1138 62.5012L75.0238 62.3212C75.2638 61.8412 75.4338 61.4012 75.5338 61.0012C75.6338 60.5812 75.6838 60.1612 75.6838 59.7412C75.6838 59.0412 75.5238 58.5712 75.2038 58.3312C74.8838 58.0912 74.4738 57.9712 73.9738 57.9712C73.2938 57.9712 72.7038 58.1612 72.2038 58.5412C71.7038 58.9012 71.2838 59.3312 70.9438 59.8312C70.8438 59.6712 70.6938 59.5712 70.4938 59.5312C70.3138 59.4712 70.2238 59.3612 70.2238 59.2012C70.2238 58.9812 70.3338 58.7612 70.5538 58.5412C70.7938 58.3212 70.9838 58.1512 71.1238 58.0312L70.9438 57.7612C70.8638 57.8212 70.7038 57.9312 70.4638 58.0912C70.2238 58.2312 69.9738 58.3912 69.7138 58.5712C69.4538 58.7312 69.2038 58.8812 68.9638 59.0212C68.7438 59.1412 68.5938 59.2012 68.5138 59.2012C68.2738 59.2012 68.1538 59.0712 68.1538 58.8112C68.1538 58.2712 68.3438 57.7512 68.7238 57.2512C69.1038 56.7312 69.5638 56.2812 70.1038 55.9012C70.6638 55.5012 71.2638 55.1812 71.9038 54.9412C72.5438 54.7012 73.1338 54.5812 73.6738 54.5812C74.4738 54.5812 75.2138 54.6712 75.8938 54.8512C76.5938 55.0312 77.2038 55.3212 77.7238 55.7212C78.2438 56.1212 78.6538 56.6412 78.9538 57.2812C79.2538 57.9012 79.4038 58.6512 79.4038 59.5312C79.4038 60.6312 79.1838 61.7312 78.7438 62.8312C78.3238 63.9312 77.7638 64.9712 77.0638 65.9512C76.3638 66.9312 75.5638 67.8412 74.6638 68.6812C73.7838 69.5012 72.8838 70.1912 71.9638 70.7512C72.1638 70.7312 72.4038 70.7112 72.6838 70.6912C72.9838 70.6712 73.2938 70.6512 73.6138 70.6312C73.9338 70.6112 74.2338 70.6012 74.5138 70.6012C74.8138 70.5812 75.0638 70.5712 75.2638 70.5712C75.5438 70.5712 75.8438 70.6112 76.1638 70.6912C76.4838 70.7512 76.7538 70.8712 76.9738 71.0513L76.9138 71.2312C76.3338 71.1712 75.7638 71.1412 75.2038 71.1412C74.9438 71.1412 74.6338 71.1512 74.2738 71.1712C73.9338 71.1712 73.5838 71.1812 73.2238 71.2012C72.8638 71.2212 72.5038 71.2412 72.1438 71.2612C71.8038 71.2812 71.5038 71.3012 71.2438 71.3212V71.3512C71.4438 71.3512 71.6938 71.3512 71.9938 71.3512C72.3138 71.3312 72.6338 71.3212 72.9538 71.3212C73.2938 71.3012 73.6138 71.2912 73.9138 71.2912C74.2138 71.2712 74.4738 71.2612 74.6938 71.2612C75.0538 71.2612 75.4038 71.2812 75.7438 71.3212C76.1038 71.3412 76.4638 71.3712 76.8238 71.4112C76.7638 71.5112 76.7338 71.5912 76.7338 71.6512C76.7338 71.8112 76.8338 71.9112 77.0338 71.9512C77.2538 71.9912 77.4838 72.0412 77.7238 72.1012C77.9838 72.1412 78.2138 72.2012 78.4138 72.2812C78.6338 72.3612 78.7438 72.5012 78.7438 72.7012ZM67.7938 70.2112C68.3138 69.8912 68.8938 69.4612 69.5338 68.9212C70.1938 68.3612 70.8438 67.7512 71.4838 67.0912C72.1438 66.4112 72.7638 65.6912 73.3438 64.9312C73.9238 64.1712 74.4138 63.4112 74.8138 62.6512C74.5138 63.3112 74.0938 64.0212 73.5538 64.7812C73.0338 65.5412 72.4438 66.2812 71.7838 67.0012C71.1438 67.7012 70.4738 68.3412 69.7738 68.9212C69.0738 69.5012 68.4138 69.9312 67.7938 70.2112ZM72.7738 66.9112C72.0738 67.6112 71.3538 68.2812 70.6138 68.9212C69.8738 69.5612 69.0838 70.1512 68.2438 70.6912L68.3938 70.7212C69.2338 70.2012 70.0038 69.6112 70.7038 68.9512C71.4238 68.2912 72.1138 67.6112 72.7738 66.9112ZM71.7238 70.3612C72.1038 70.1812 72.4838 69.8712 72.8638 69.4312L71.0938 70.6612C71.2538 70.5812 71.4638 70.4812 71.7238 70.3612ZM67.5538 74.0212C67.5938 74.0212 67.7038 74.0212 67.8838 74.0212C68.0638 74.0413 68.2538 74.0613 68.4538 74.0813C68.6538 74.1013 68.8338 74.1213 68.9938 74.1413C69.1738 74.1813 69.2838 74.2113 69.3238 74.2313L67.5838 74.1113L67.5538 74.0212ZM67.2838 71.3212L68.0038 70.9612L67.9738 70.8712C67.8538 70.9712 67.7238 71.0412 67.5838 71.0812C67.4438 71.1212 67.3138 71.1712 67.1938 71.2312V71.3212H67.2838Z" fill="#E87F2B"/>
</svg>
