<svg width="103" height="95" viewBox="0 0 103 95" fill="none" xmlns="http://www.w3.org/2000/svg">
<path d="M0.00372301 77.0351C0.364855 75.6231 0.677588 74.2889 1.04617 72.9733C2.9933 65.9837 5.48399 59.1943 8.42517 52.5531C10.1973 48.5543 12.1333 44.6482 14.2554 40.831C16.7722 36.3059 19.583 31.9625 22.6284 27.7709C24.1363 25.6956 25.9456 23.8982 27.8779 22.223C28.306 21.8524 28.8086 21.5522 29.3075 21.278C30.7148 20.5108 32.3083 20.8518 33.3991 22.1304C34.2964 23.1792 34.8548 24.417 35.3462 25.6882C36.1318 27.7302 36.8429 29.8018 37.6768 31.8216C37.9561 32.4998 38.455 33.1187 38.9687 33.6561C39.7952 34.5233 40.8377 34.5826 42.1407 33.9229C43.8831 33.0409 45.2755 31.7179 46.4892 30.2132C48.1385 28.1675 49.7729 26.1144 51.3887 24.0427C52.6322 22.4454 53.8235 20.8073 55.0484 19.1952C56.0983 17.8092 57.2673 16.5306 58.7416 15.5781C59.3038 15.2149 60 15.0519 60.5212 15.5263C62.1966 17.0531 64.0841 16.9679 66.0573 16.386C68.9352 15.5411 71.5786 14.1921 74.0879 12.5874C78.1013 10.0154 82.0663 7.37671 86.0685 4.7862C88.2092 3.40015 90.3723 2.04004 92.5428 0.702167C93.1273 0.342682 93.7528 0.0239647 94.4937 0.0313768C94.9293 0.0350828 95.1117 0.264856 94.9553 0.602104C94.6389 1.29884 94.3112 2.00669 93.857 2.61447C93.1981 3.48909 92.4125 4.26736 91.7014 5.10492C89.2256 8.01415 86.3589 10.5194 83.4289 12.9506C81.4669 14.5812 79.49 16.2045 77.42 17.6943C75.8302 18.8394 74.0916 19.7771 72.4162 20.8036C72.0067 21.0556 71.586 21.2854 71.1765 21.5337C69.1958 22.7345 67.0477 23.4794 64.7654 23.8759C63.9501 24.0167 63.2018 23.8574 62.5987 23.3126C61.936 22.7122 61.344 22.0414 60.726 21.3929C60.5882 21.2483 60.4877 21.0668 60.35 20.9222C59.758 20.2885 59.0692 20.1328 58.3135 20.5331C57.9114 20.748 57.5019 21.0186 57.2077 21.3595C56.0127 22.7345 54.799 24.1057 53.7044 25.5585C51.895 27.9674 50.2197 30.4763 48.3991 32.8778C47.0849 34.6123 45.6813 36.2911 44.1996 37.8884C43.5443 38.5962 42.6508 39.1336 41.7796 39.5783C40.6068 40.1713 39.4453 39.834 38.3991 39.141C37.0663 38.2553 36.2807 36.9359 35.7632 35.4758C35.2234 33.9526 34.8362 32.3775 34.3299 30.8395C33.8757 29.4535 33.4177 28.0563 32.8295 26.7221C32.4497 25.8586 31.787 25.1508 30.7967 24.8728C29.7357 24.5726 28.8086 24.9433 27.9375 25.488C26.1988 26.5702 24.7952 28.0044 23.4773 29.5721C20.3239 33.33 17.9039 37.5437 15.6515 41.8575C13.8682 45.2745 12.1258 48.7248 10.5696 52.2492C8.74535 56.3814 7.07372 60.5804 5.4691 64.8015C4.11765 68.3593 3.06404 72.0246 2.20774 75.738C2.13328 76.0678 2.04021 76.3939 1.93596 76.7164C1.9099 76.8016 1.81683 76.9239 1.74609 76.9276C1.19509 76.9758 0.640357 76.998 0 77.0351H0.00372301Z" fill="#019D45"/>
<circle cx="69.6538" cy="65.0469" r="29" fill="#019D45"/>
<circle cx="73.6538" cy="62.0469" r="29" fill="#E6F7ED"/>
<path d="M66.2838 72.2969C66.4238 72.2969 66.5638 72.3069 66.7038 72.3269C66.8438 72.3269 66.9838 72.3269 67.1238 72.3269C67.5438 72.6269 68.0138 72.8369 68.5338 72.9569C69.0538 73.0569 69.5738 73.1069 70.0938 73.1069C70.4538 73.1069 70.9538 73.0569 71.5938 72.9569C72.2538 72.8369 72.8938 72.6669 73.5138 72.4469C74.1338 72.2069 74.6738 71.9069 75.1338 71.5469C75.5938 71.1869 75.8238 70.7669 75.8238 70.2869C75.8238 69.9269 75.6938 69.5569 75.4338 69.1769C75.1938 68.7969 74.8938 68.4269 74.5338 68.0669C74.1938 67.7069 73.8338 67.3769 73.4538 67.0769C73.1138 66.8169 72.8238 66.5769 72.5838 66.3569C72.8038 66.5769 73.0838 66.8269 73.4238 67.1069C73.8038 67.4069 74.1538 67.7369 74.4738 68.0969C74.8138 68.4569 75.1038 68.8369 75.3438 69.2369C75.5838 69.6169 75.7038 69.9869 75.7038 70.3469C75.7038 70.8069 75.4838 71.2069 75.0438 71.5469C74.6238 71.8669 74.1238 72.1369 73.5438 72.3569C72.9638 72.5569 72.3738 72.7069 71.7738 72.8069C71.1738 72.9069 70.7038 72.9569 70.3638 72.9569C69.8638 72.9569 69.3638 72.9169 68.8638 72.8369C68.3838 72.7369 67.9238 72.5669 67.4838 72.3269C67.6038 72.3069 67.7238 72.2969 67.8438 72.2969C67.9838 72.2769 68.1138 72.2669 68.2338 72.2669C68.6938 72.2669 69.1138 72.2869 69.4938 72.3269C69.8938 72.3469 70.2838 72.3569 70.6638 72.3569C71.0838 72.3569 71.5038 72.3169 71.9238 72.2369C72.3438 72.1569 72.8038 71.9969 73.3038 71.7569L73.7838 71.8769C74.1238 71.6769 74.4438 71.4469 74.7438 71.1869C75.0638 70.9269 75.2238 70.5869 75.2238 70.1669C75.2238 69.8269 75.0338 69.4269 74.6538 68.9669C74.2738 68.4869 73.8338 68.0169 73.3338 67.5569C72.8338 67.0969 72.3238 66.6669 71.8038 66.2669C71.3038 65.8669 70.9238 65.5769 70.6638 65.3969L70.9038 63.7469C71.1038 63.6469 71.3438 63.5669 71.6238 63.5069C71.9038 63.4469 72.1938 63.3869 72.4938 63.3269C72.7938 63.2469 73.0738 63.1469 73.3338 63.0269C73.5938 62.9069 73.8038 62.7269 73.9638 62.4869L73.7838 62.3969C73.7638 62.4569 73.6138 62.5369 73.3338 62.6369C73.0738 62.7169 72.7738 62.8169 72.4338 62.9369C72.0938 63.0369 71.7638 63.1369 71.4438 63.2369C71.1438 63.3369 70.9338 63.4169 70.8138 63.4769L70.8438 63.5369C70.8438 63.5769 70.8138 63.5969 70.7538 63.5969L70.7238 63.5669L70.4538 65.6069C70.7538 65.8869 71.1638 66.2269 71.6838 66.6269C72.2038 67.0069 72.7138 67.4069 73.2138 67.8269C73.7338 68.2469 74.1838 68.6769 74.5638 69.1169C74.9438 69.5369 75.1338 69.9169 75.1338 70.2569C75.1338 70.3969 75.0838 70.5369 74.9838 70.6769C74.8838 70.7969 74.7538 70.9169 74.5938 71.0369C74.4538 71.1369 74.3038 71.2369 74.1438 71.3369C74.0238 71.4169 73.9138 71.4769 73.8138 71.5169C73.8938 71.4769 73.9938 71.4169 74.1138 71.3369C74.2738 71.2369 74.4238 71.1369 74.5638 71.0369C74.7038 70.9169 74.8238 70.7969 74.9238 70.6769C75.0238 70.5369 75.0738 70.4069 75.0738 70.2869C75.0738 69.9069 74.8638 69.4969 74.4438 69.0569C74.0438 68.6169 73.5738 68.1869 73.0338 67.7669C72.5138 67.3469 71.9938 66.9569 71.4738 66.5969C70.9538 66.2169 70.5838 65.9069 70.3638 65.6669C70.4238 65.2869 70.4538 65.0069 70.4538 64.8269C70.4538 64.6469 70.4638 64.3969 70.4838 64.0769C70.5438 64.0569 70.5738 63.9569 70.5738 63.7769V63.4169C71.1338 63.1769 71.6538 62.9869 72.1338 62.8469C72.6138 62.7069 73.0538 62.5369 73.4538 62.3369C73.8538 62.1169 74.2138 61.8269 74.5338 61.4669C74.8738 61.1069 75.1938 60.5869 75.4938 59.9069C75.4938 59.3069 75.2138 58.8369 74.6538 58.4969C74.0938 58.1369 73.3638 57.9569 72.4638 57.9569C72.1838 57.9569 71.8838 57.9969 71.5638 58.0769C71.2638 58.1569 70.9538 58.2569 70.6338 58.3769C70.3138 58.4769 69.9938 58.5869 69.6738 58.7069C69.3738 58.8269 69.0938 58.9269 68.8338 59.0069C68.8138 58.8669 68.7538 58.7469 68.6538 58.6469C68.5738 58.5269 68.5338 58.3969 68.5338 58.2569C68.5338 58.1369 68.6038 58.0369 68.7438 57.9569C68.8838 57.8569 69.0438 57.7769 69.2238 57.7169C69.4238 57.6569 69.6138 57.6069 69.7938 57.5669C69.9738 57.5269 70.1038 57.4969 70.1838 57.4769L70.0938 57.1169C69.9738 57.1569 69.7438 57.1969 69.4038 57.2369C69.0838 57.2569 68.7538 57.2669 68.4138 57.2669C68.0738 57.2669 67.7638 57.2369 67.4838 57.1769C67.2038 57.0969 67.0638 56.9569 67.0638 56.7569C67.0638 56.4769 67.3238 56.2169 67.8438 55.9769C68.3638 55.7169 68.9538 55.4969 69.6138 55.3169C70.2738 55.1169 70.9138 54.9669 71.5338 54.8669C72.1538 54.7469 72.5638 54.6869 72.7638 54.6869C73.4638 54.6869 74.1938 54.8169 74.9538 55.0769C75.7138 55.3169 76.4038 55.6669 77.0238 56.1269C77.6638 56.5869 78.1838 57.1369 78.5838 57.7769C78.9838 58.3969 79.1838 59.0969 79.1838 59.8769V59.9969C79.1638 60.5769 78.9938 61.1169 78.6738 61.6169C78.3738 62.0969 78.0038 62.5369 77.5638 62.9369C77.1238 63.3369 76.6438 63.6869 76.1238 63.9869C75.6238 64.2869 75.1738 64.5269 74.7738 64.7069C75.3138 64.9869 75.8138 65.3369 76.2738 65.7569C76.7338 66.1569 77.1238 66.5969 77.4438 67.0769C77.7838 67.5569 78.0438 68.0669 78.2238 68.6069C78.4238 69.1269 78.5238 69.6469 78.5238 70.1669C78.5238 71.3069 78.2138 72.2369 77.5938 72.9569C76.9938 73.6769 76.2338 74.2369 75.3138 74.6369C74.4138 75.0569 73.4338 75.3469 72.3738 75.5069C71.3338 75.6669 70.3638 75.7469 69.4638 75.7469C69.3438 75.7469 69.1238 75.7269 68.8038 75.6869C68.5038 75.6669 68.1838 75.6169 67.8438 75.5369C67.5238 75.4769 67.2338 75.3869 66.9738 75.2669C66.7338 75.1469 66.6138 74.9969 66.6138 74.8169L66.6738 74.6669C67.7338 75.0469 68.8438 75.2369 70.0038 75.2369C70.7438 75.2369 71.4738 75.1569 72.1938 74.9969C72.9138 74.8569 73.6238 74.6569 74.3238 74.3969C73.6438 74.6169 72.9438 74.7969 72.2238 74.9369C71.5238 75.0769 70.8138 75.1469 70.0938 75.1469C68.9338 75.1469 67.8538 74.9569 66.8538 74.5769L67.0638 74.2469C66.9438 74.1869 66.8038 74.0969 66.6438 73.9769C66.4838 73.8769 66.3238 73.7569 66.1638 73.6169C66.0238 73.4769 65.9038 73.3369 65.8038 73.1969C65.7038 73.0569 65.6538 72.9069 65.6538 72.7469C65.6538 72.5869 65.7238 72.4769 65.8638 72.4169C66.0038 72.3369 66.1438 72.2969 66.2838 72.2969ZM77.1138 72.4469C77.6138 71.8669 77.8638 71.0969 77.8638 70.1369C77.8638 69.3969 77.6838 68.7169 77.3238 68.0969C76.9638 67.4969 76.5338 66.9469 76.0338 66.4469C76.5538 67.0069 76.9638 67.6369 77.2638 68.3369C77.5838 69.0369 77.7438 69.7969 77.7438 70.6169C77.7438 70.9569 77.6538 71.2969 77.4738 71.6369C77.3138 71.9569 77.1038 72.2669 76.8438 72.5669C76.6038 72.8469 76.3338 73.1069 76.0338 73.3469C75.7938 73.5469 75.5738 73.7069 75.3738 73.8269C76.0738 73.4269 76.6538 72.9669 77.1138 72.4469ZM75.2838 73.8869C75.2638 73.9069 75.2438 73.9169 75.2238 73.9169C75.2438 73.8969 75.2638 73.8869 75.2838 73.8869Z" fill="#019D45"/>
</svg>
