<svg width="103" height="95" viewBox="0 0 103 95" fill="none" xmlns="http://www.w3.org/2000/svg">
<path d="M0.00372301 77.0038C0.364855 75.5918 0.677588 74.2577 1.04617 72.942C2.9933 65.9525 5.48399 59.1631 8.42517 52.5219C10.1973 48.5231 12.1333 44.6169 14.2554 40.7997C16.7722 36.2747 19.583 31.9312 22.6284 27.7397C24.1363 25.6643 25.9456 23.8669 27.8779 22.1918C28.306 21.8212 28.8086 21.521 29.3075 21.2467C30.7148 20.4796 32.3083 20.8206 33.3991 22.0991C34.2964 23.1479 34.8548 24.3857 35.3462 25.6569C36.1318 27.6989 36.8429 29.7706 37.6768 31.7904C37.9561 32.4686 38.455 33.0875 38.9687 33.6249C39.7952 34.4921 40.8377 34.5514 42.1407 33.8917C43.8831 33.0097 45.2755 31.6866 46.4892 30.182C48.1385 28.1362 49.7729 26.0831 51.3887 24.0114C52.6322 22.4141 53.8235 20.7761 55.0484 19.164C56.0983 17.7779 57.2673 16.4993 58.7416 15.5469C59.3038 15.1837 60 15.0206 60.5212 15.495C62.1966 17.0219 64.0841 16.9366 66.0573 16.3548C68.9352 15.5098 71.5786 14.1608 74.0879 12.5561C78.1013 9.98415 82.0663 7.34546 86.0685 4.75495C88.2092 3.3689 90.3723 2.00879 92.5428 0.670917C93.1273 0.311432 93.7528 -0.00728528 94.4937 0.000126764C94.9293 0.00383278 95.1117 0.233606 94.9553 0.570854C94.6389 1.26759 94.3112 1.97544 93.857 2.58322C93.1981 3.45784 92.4125 4.23611 91.7014 5.07367C89.2256 7.9829 86.3589 10.4882 83.4289 12.9193C81.4669 14.55 79.49 16.1732 77.42 17.663C75.8302 18.8082 74.0916 19.7458 72.4162 20.7724C72.0067 21.0244 71.586 21.2542 71.1765 21.5025C69.1958 22.7032 67.0477 23.4481 64.7654 23.8447C63.9501 23.9855 63.2018 23.8261 62.5987 23.2814C61.936 22.681 61.344 22.0102 60.726 21.3616C60.5882 21.2171 60.4877 21.0355 60.35 20.891C59.758 20.2572 59.0692 20.1016 58.3135 20.5018C57.9114 20.7168 57.5019 20.9873 57.2077 21.3283C56.0127 22.7032 54.799 24.0744 53.7044 25.5272C51.895 27.9361 50.2197 30.4451 48.3991 32.8466C47.0849 34.581 45.6813 36.2598 44.1996 37.8571C43.5443 38.565 42.6508 39.1024 41.7796 39.5471C40.6068 40.14 39.4453 39.8028 38.3991 39.1098C37.0663 38.224 36.2807 36.9047 35.7632 35.4445C35.2234 33.9213 34.8362 32.3463 34.3299 30.8083C33.8757 29.4222 33.4177 28.0251 32.8295 26.6909C32.4497 25.8274 31.787 25.1195 30.7967 24.8416C29.7357 24.5414 28.8086 24.912 27.9375 25.4568C26.1988 26.5389 24.7952 27.9732 23.4773 29.5408C20.3239 33.2987 17.9039 37.5125 15.6515 41.8263C13.8682 45.2432 12.1258 48.6935 10.5696 52.218C8.74535 56.3502 7.07372 60.5491 5.4691 64.7703C4.11765 68.328 3.06404 71.9933 2.20774 75.7067C2.13328 76.0366 2.04021 76.3627 1.93596 76.6851C1.9099 76.7704 1.81683 76.8927 1.74609 76.8964C1.19509 76.9445 0.640357 76.9668 0 77.0038H0.00372301Z" fill="#003F32"/>
<circle cx="69.6538" cy="65.0156" r="29" fill="#003F32"/>
<circle cx="73.6538" cy="62.0156" r="29" fill="#E6ECEB"/>
<path d="M74.0638 72.4656C74.2638 71.6256 74.4338 70.6956 74.5738 69.6756C74.7138 68.6556 74.8038 67.7156 74.8438 66.8556C74.8038 67.2156 74.7638 67.6256 74.7238 68.0856C74.6838 68.5456 74.6238 69.0156 74.5438 69.4956C74.4838 69.9556 74.4038 70.4056 74.3038 70.8456C74.2238 71.2856 74.1138 71.6756 73.9738 72.0156C73.8738 71.7956 73.8138 71.5656 73.7938 71.3256C73.7938 71.0656 73.7938 70.8156 73.7938 70.5756C73.7938 70.2756 73.8138 69.9256 73.8538 69.5256C73.8938 69.1056 73.9338 68.6856 73.9738 68.2656C74.0338 67.8256 74.0838 67.3956 74.1238 66.9756C74.1838 66.5556 74.2238 66.1956 74.2438 65.8956L74.4838 65.6256C74.4838 65.5656 74.4738 65.5156 74.4538 65.4756C74.4538 65.4356 74.4538 65.3956 74.4538 65.3556C74.4538 65.2956 74.4538 65.2356 74.4538 65.1756C74.4738 65.0956 74.4838 64.9956 74.4838 64.8756C74.4838 64.2556 74.5138 63.6156 74.5738 62.9556C74.6538 62.2756 74.7338 61.6056 74.8138 60.9456C74.9138 60.2656 74.9938 59.5956 75.0538 58.9356C75.1338 58.2756 75.1738 57.6256 75.1738 56.9856L74.8738 57.2256C74.7738 58.1856 74.6738 59.1856 74.5738 60.2256C74.4938 61.2056 74.4238 62.1656 74.3638 63.1056L74.4238 60.3156C74.4438 59.8956 74.4938 59.4056 74.5738 58.8456C74.6738 58.2656 74.7438 57.7556 74.7838 57.3156C74.6238 57.4156 74.3938 57.5556 74.0938 57.7356C73.8138 57.9156 73.4838 58.1256 73.1038 58.3656C72.7438 58.6056 72.3638 58.8556 71.9638 59.1156C71.5838 59.3556 71.2238 59.5856 70.8838 59.8056C70.5638 60.0256 70.2838 60.2256 70.0438 60.4056C69.8038 60.5856 69.6538 60.7156 69.5938 60.7956C69.5138 60.6356 69.3738 60.5356 69.1738 60.4956C68.9938 60.4356 68.8938 60.3156 68.8738 60.1356C68.9338 59.9756 69.0238 59.8256 69.1438 59.6856C69.2638 59.5256 69.3838 59.3856 69.5038 59.2656L69.3238 59.0856C69.2038 59.1456 69.0538 59.2356 68.8738 59.3556C68.6938 59.4556 68.5038 59.5556 68.3038 59.6556C68.1238 59.7356 67.9338 59.8156 67.7338 59.8956C67.5538 59.9556 67.3938 59.9856 67.2538 59.9856C67.0538 59.9056 66.9538 59.7856 66.9538 59.6256C66.9538 59.1256 67.2138 58.6356 67.7338 58.1556C68.2538 57.6556 68.9238 57.1456 69.7438 56.6256C70.5638 56.0856 71.4738 55.5156 72.4738 54.9156C73.4738 54.2956 74.4538 53.6056 75.4138 52.8456L78.0538 53.9256C78.1538 54.1856 78.2338 54.5256 78.2938 54.9456C78.3538 55.3656 78.3838 55.7156 78.3838 55.9956V56.7456C78.3838 57.1856 78.3738 57.6156 78.3538 58.0356C78.3538 58.4556 78.3038 58.8856 78.2038 59.3256C78.0838 59.9456 77.9838 60.6956 77.9038 61.5756C77.8238 62.4556 77.7538 63.3856 77.6938 64.3656C77.6338 65.3256 77.5738 66.2856 77.5138 67.2456C77.4738 68.1856 77.4138 69.0356 77.3338 69.7956C77.2538 70.5556 77.1538 71.1756 77.0338 71.6556C76.9138 72.1156 76.7638 72.3456 76.5838 72.3456C76.5438 72.3456 76.4838 72.3256 76.4038 72.2856C76.5038 71.8856 76.6038 71.4656 76.7038 71.0256C76.8038 70.5856 76.8538 70.1656 76.8538 69.7656V69.0456C76.7938 69.5656 76.7238 70.0856 76.6438 70.6056C76.5638 71.1456 76.4538 71.6756 76.3138 72.1956C76.2338 72.1556 76.1338 72.1356 76.0138 72.1356C75.8538 72.1356 75.7438 72.2056 75.6838 72.3456C75.6438 72.4856 75.5938 72.6356 75.5338 72.7956C75.4938 72.9756 75.4338 73.1356 75.3538 73.2756C75.2738 73.4156 75.1338 73.4856 74.9338 73.4856C74.6738 73.4856 74.4838 73.3656 74.3638 73.1256C74.2638 72.8856 74.1638 72.6656 74.0638 72.4656ZM77.0638 63.4356C77.0238 64.3756 76.9838 65.3456 76.9438 66.3456C77.0438 65.3456 77.1238 64.3556 77.1838 63.3756C77.2438 62.4156 77.3338 61.4556 77.4538 60.4956C77.2338 61.5156 77.1038 62.4956 77.0638 63.4356ZM74.9338 65.5356C75.0138 64.9556 75.0638 64.3856 75.0838 63.8256C75.1238 63.2656 75.1538 62.7156 75.1738 62.1756C75.1938 61.6356 75.2138 61.1056 75.2338 60.5856C75.2338 60.2656 75.2538 59.9456 75.2938 59.6256C75.1738 60.5056 75.0938 61.3856 75.0538 62.2656C75.0138 63.3456 74.9738 64.4356 74.9338 65.5356Z" fill="#003F32"/>
</svg>
