<svg width="114" height="111" viewBox="0 0 114 111" fill="none" xmlns="http://www.w3.org/2000/svg">
<circle cx="55.8219" cy="55.7936" r="54.86" fill="#019D45"/>
<circle cx="98.978" cy="24.3403" r="13.5321" fill="#019D45" stroke="white" stroke-width="2.1944"/>
<path d="M100.995 19.1823V28.7578H99.5457V20.6317H99.4896L97.1986 22.1279V20.7439L99.5878 19.1823H100.995Z" fill="#FAFAFA"/>
<path d="M52.4297 55.7961L55.6615 59.0413L62.1387 52.5508" stroke="white" stroke-width="1.82867" stroke-linecap="round" stroke-linejoin="round"/>
<path d="M46.878 48.019C46.878 46.5975 48.0447 45.4308 49.4662 45.4308H51.7862C52.3226 45.4308 53.0736 45.1492 53.4759 44.8139L55.5947 43.0036C56.5334 42.2124 58.0487 42.2124 58.9606 43.0036L61.0795 44.8139C61.4818 45.1492 62.2461 45.4308 62.7826 45.4308H65.0623C66.4838 45.4308 67.6505 46.5975 67.6505 48.019V50.2987C67.6505 50.8351 67.9321 51.5861 68.2673 51.9884L70.0777 54.1072C70.8689 55.0459 70.8689 56.5613 70.0777 57.4732L68.2673 59.592C67.9321 59.9943 67.6505 60.7453 67.6505 61.2817V63.5614C67.6505 64.9829 66.4838 66.1496 65.0623 66.1496H62.7826C62.2461 66.1496 61.4952 66.4312 61.0929 66.7665L58.9741 68.5768C58.0353 69.368 56.52 69.368 55.6081 68.5768L53.4893 66.7665C53.087 66.4312 52.3226 66.1496 51.7996 66.1496H49.4662C48.0447 66.1496 46.878 64.9829 46.878 63.5614V61.2683C46.878 60.7453 46.6098 59.9809 46.2746 59.592L44.4642 57.4598C43.6864 56.5345 43.6864 55.0325 44.4642 54.1072L45.2152 53.2221" stroke="white" stroke-width="1.82867" stroke-linecap="round" stroke-linejoin="round"/>
</svg>
