<svg width="57" height="51" viewBox="0 0 57 51" fill="none" xmlns="http://www.w3.org/2000/svg">
<path opacity="0.4" d="M48.2637 21.7744H41.5632C36.0684 21.7744 31.5937 17.7536 31.5937 12.8161V6.79525C31.5937 5.64941 30.5503 4.71191 29.2752 4.71191H19.4447C12.3037 4.71191 6.53064 8.87858 6.53064 16.3161V34.7744C6.53064 42.2119 12.3037 46.3786 19.4447 46.3786H37.6681C44.8091 46.3786 50.5822 42.2119 50.5822 34.7744V23.8577C50.5822 22.7119 49.5389 21.7744 48.2637 21.7744Z" fill="#8AD9AD"/>
<path d="M37.3186 5.49677C36.3681 4.6426 34.7219 5.22594 34.7219 6.41344V13.6843C34.7219 16.7259 37.5969 19.2468 41.0978 19.2468C43.3004 19.2676 46.3608 19.2676 48.9807 19.2676C50.3023 19.2676 50.9978 17.8718 50.0704 17.0384C46.7318 14.0176 40.75 8.5801 37.3186 5.49677Z" fill="#01AC4C"/>
<path d="M27.4667 26.5244L22.8297 22.3577C22.8065 22.3369 22.7834 22.3369 22.7834 22.3161C22.6443 22.1911 22.4588 22.0869 22.2733 22.0036C22.2501 22.0036 22.2501 22.0036 22.2269 22.0036C22.0414 21.9411 21.856 21.9202 21.6705 21.8994C21.6009 21.8994 21.5546 21.8994 21.485 21.8994C21.3459 21.8994 21.1836 21.9411 21.0445 21.9827C20.9749 22.0036 20.9286 22.0244 20.8822 22.0452C20.6967 22.1286 20.5112 22.2119 20.3721 22.3577L15.7351 26.5244C15.0627 27.1286 15.0627 28.1286 15.7351 28.7327C16.4075 29.3369 17.5204 29.3369 18.1927 28.7327L19.862 27.2327V35.9619C19.862 36.8161 20.6503 37.5244 21.6009 37.5244C22.5515 37.5244 23.3398 36.8161 23.3398 35.9619V27.2327L25.0091 28.7327C25.3569 29.0452 25.7974 29.1911 26.2379 29.1911C26.6784 29.1911 27.119 29.0452 27.4667 28.7327C28.1391 28.1286 28.1391 27.1286 27.4667 26.5244Z" fill="#01AC4C"/>
</svg>
