<svg width="114" height="111" viewBox="0 0 114 111" fill="none" xmlns="http://www.w3.org/2000/svg">
<circle cx="55.5367" cy="55.7936" r="54.86" fill="#FF8C2F"/>
<circle cx="98.6928" cy="24.3403" r="13.5321" fill="#FF8C2F" stroke="white" stroke-width="2.1944"/>
<path d="M95.6884 28.7578V27.7105L98.9286 24.3534C99.2746 23.9887 99.5598 23.6692 99.7842 23.3949C100.012 23.1175 100.182 22.8541 100.294 22.6048C100.406 22.3554 100.462 22.0905 100.462 21.8099C100.462 21.492 100.387 21.2177 100.238 20.987C100.088 20.7532 99.884 20.574 99.6252 20.4493C99.3665 20.3215 99.0751 20.2576 98.7509 20.2576C98.408 20.2576 98.1088 20.3278 97.8532 20.468C97.5976 20.6083 97.4012 20.8062 97.2641 21.0618C97.1269 21.3174 97.0584 21.6167 97.0584 21.9595H95.6791C95.6791 21.3767 95.8131 20.867 96.0812 20.4306C96.3492 19.9942 96.717 19.656 97.1846 19.416C97.6522 19.1729 98.1836 19.0513 98.779 19.0513C99.3806 19.0513 99.9105 19.1713 100.369 19.4114C100.83 19.6483 101.19 19.9724 101.449 20.3839C101.707 20.7922 101.837 21.2535 101.837 21.7678C101.837 22.1232 101.77 22.4707 101.636 22.8105C101.505 23.1503 101.276 23.529 100.948 23.9467C100.621 24.3612 100.166 24.8646 99.5832 25.4569L97.6802 27.4487V27.5188H101.991V28.7578H95.6884Z" fill="#FAFAFA"/>
<path d="M42.1267 49.2801C42.1267 47.6441 43.3738 45.8337 44.9026 45.257L51.5809 42.7493C52.6805 42.3336 54.5043 42.3336 55.604 42.7493L62.2688 45.257C63.5428 45.7398 64.629 47.0808 64.9643 48.4486H55.1748C54.8798 48.4486 54.6116 48.4621 54.3568 48.4621C51.8759 48.6096 51.2322 49.5081 51.2322 52.3376V59.6194C51.2322 62.7171 52.0234 63.5083 55.1748 63.5083H63.1137C62.993 63.6156 62.8723 63.7095 62.7516 63.8168L57.0254 68.108C55.1346 69.5161 52.0502 69.5161 50.146 68.108L44.4064 63.8168C43.1459 62.878 42.1133 60.7994 42.1133 59.2305V54.7783" stroke="white" stroke-width="1.82867" stroke-linecap="round" stroke-linejoin="round"/>
<path d="M51.2451 54.75H68.9466" stroke="white" stroke-width="1.82867" stroke-miterlimit="10" stroke-linecap="round" stroke-linejoin="round"/>
<path d="M68.9466 52.336V59.7786C68.9198 62.7557 68.1017 63.4932 65.004 63.4932H55.1877C52.0363 63.4932 51.2451 62.702 51.2451 59.6043V52.3225C51.2451 49.5064 51.8888 48.6079 54.3697 48.447C54.6245 48.447 54.8927 48.4336 55.1877 48.4336H65.004C68.1554 48.447 68.9466 49.2248 68.9466 52.336Z" stroke="white" stroke-width="1.82867" stroke-linecap="round" stroke-linejoin="round"/>
<path d="M54.625 60.168H56.4085" stroke="white" stroke-width="1.82867" stroke-miterlimit="10" stroke-linecap="round" stroke-linejoin="round"/>
<path d="M59.2246 60.168H63.6098" stroke="white" stroke-width="1.82867" stroke-miterlimit="10" stroke-linecap="round" stroke-linejoin="round"/>
</svg>
