<svg width="40" height="41" viewBox="0 0 40 41" fill="none" xmlns="http://www.w3.org/2000/svg">
<circle cx="19.9918" cy="21.5074" r="19.4918" fill="#019D45"/>
<circle cx="19.9918" cy="19.4918" r="19.4918" fill="#E6F7ED"/>
<path d="M20.328 21.3313H18.6476C18.3721 21.3313 18.1435 21.1028 18.1435 20.8272C18.1435 20.5517 18.3721 20.3231 18.6476 20.3231H20.328C22.0889 20.3231 23.5206 18.8915 23.5206 17.1305C23.5206 15.3695 22.0889 13.9379 20.328 13.9379H16.9673C15.2063 13.9379 13.7747 15.3695 13.7747 17.1305C13.7747 17.8699 14.0368 18.589 14.5073 19.1603C14.6821 19.3754 14.6552 19.6913 14.4401 19.8728C14.225 20.0475 13.9091 20.0207 13.7276 19.8056C13.1026 19.0528 12.7598 18.1051 12.7598 17.1305C12.7598 14.8117 14.6417 12.9297 16.9606 12.9297H20.3212C22.6401 12.9297 24.5221 14.8117 24.5221 17.1305C24.5221 19.4494 22.6468 21.3313 20.328 21.3313Z" fill="#019D45"/>
<path d="M23.0166 26.0384H19.6559C17.337 26.0384 15.4551 24.1564 15.4551 21.8375C15.4551 19.5187 17.337 17.6367 19.6559 17.6367H21.3362C21.6118 17.6367 21.8403 17.8652 21.8403 18.1408C21.8403 18.4164 21.6118 18.6449 21.3362 18.6449H19.6559C17.8949 18.6449 16.4633 20.0766 16.4633 21.8375C16.4633 23.5985 17.8949 25.0302 19.6559 25.0302H23.0166C24.7775 25.0302 26.2092 23.5985 26.2092 21.8375C26.2092 21.0982 25.947 20.379 25.4766 19.8077C25.3018 19.5926 25.3287 19.2767 25.5438 19.0953C25.7589 18.9138 26.0748 18.9474 26.2562 19.1624C26.8813 19.9152 27.2241 20.8629 27.2241 21.8375C27.2174 24.1564 25.3354 26.0384 23.0166 26.0384Z" fill="#019D45"/>
</svg>
