<svg width="20" height="20" viewBox="0 0 20 20" fill="none" xmlns="http://www.w3.org/2000/svg">
<path d="M11.6667 4.16667C11.6667 3.25 10.9167 2.5 10 2.5C9.08335 2.5 8.33335 3.25 8.33335 4.16667C8.33335 5.08333 9.08335 5.83333 10 5.83333C10.9167 5.83333 11.6667 5.08333 11.6667 4.16667Z" stroke="#292D32" stroke-width="1.5"/>
<path d="M11.6667 15.8337C11.6667 14.917 10.9167 14.167 10 14.167C9.08335 14.167 8.33335 14.917 8.33335 15.8337C8.33335 16.7503 9.08335 17.5003 10 17.5003C10.9167 17.5003 11.6667 16.7503 11.6667 15.8337Z" stroke="#292D32" stroke-width="1.5"/>
<path d="M11.6667 9.99967C11.6667 9.08301 10.9167 8.33301 10 8.33301C9.08335 8.33301 8.33335 9.08301 8.33335 9.99967C8.33335 10.9163 9.08335 11.6663 10 11.6663C10.9167 11.6663 11.6667 10.9163 11.6667 9.99967Z" stroke="#292D32" stroke-width="1.5"/>
</svg>
