<svg width="114" height="111" viewBox="0 0 114 111" fill="none" xmlns="http://www.w3.org/2000/svg">
<circle cx="55.2516" cy="55.7936" r="54.86" fill="#003F32"/>
<circle cx="98.4076" cy="24.3403" r="13.5321" fill="#003F32" stroke="white" stroke-width="2.1944"/>
<path d="M98.5312 28.8887C97.8891 28.8887 97.3156 28.7781 96.8106 28.5568C96.3088 28.3355 95.9113 28.0284 95.6183 27.6357C95.3285 27.2398 95.1726 26.7816 95.1508 26.2611H96.6189C96.6376 26.5447 96.7327 26.791 96.9041 26.9998C97.0787 27.2055 97.3062 27.3645 97.5868 27.4767C97.8673 27.5889 98.179 27.645 98.5219 27.645C98.899 27.645 99.2326 27.5796 99.5224 27.4487C99.8154 27.3177 100.045 27.1354 100.21 26.9016C100.375 26.6647 100.458 26.392 100.458 26.0834C100.458 25.7623 100.375 25.4802 100.21 25.2371C100.048 24.9909 99.8092 24.7976 99.4944 24.6573C99.1827 24.5171 98.8055 24.4469 98.3629 24.4469H97.554V23.2687H98.3629C98.7182 23.2687 99.0299 23.2048 99.298 23.077C99.5692 22.9492 99.7812 22.7715 99.9339 22.544C100.087 22.3133 100.163 22.0437 100.163 21.7351C100.163 21.439 100.096 21.1818 99.9619 20.9636C99.831 20.7423 99.644 20.5693 99.4009 20.4447C99.1609 20.32 98.8772 20.2576 98.5499 20.2576C98.2382 20.2576 97.9468 20.3153 97.6756 20.4306C97.4075 20.5428 97.1893 20.7049 97.021 20.9169C96.8527 21.1257 96.7623 21.3767 96.7498 21.6697H95.3518C95.3674 21.1522 95.5202 20.6971 95.81 20.3044C96.103 19.9116 96.4896 19.6046 96.9696 19.3833C97.4496 19.162 97.9826 19.0513 98.5686 19.0513C99.1827 19.0513 99.7126 19.1713 100.158 19.4114C100.607 19.6483 100.953 19.9646 101.196 20.3605C101.443 20.7564 101.564 21.1896 101.561 21.6603C101.564 22.1964 101.414 22.6515 101.112 23.0256C100.813 23.3996 100.414 23.6505 99.9152 23.7783V23.8531C100.551 23.9498 101.044 24.2023 101.393 24.6106C101.745 25.0189 101.919 25.5254 101.916 26.1301C101.919 26.6569 101.773 27.1292 101.477 27.5468C101.184 27.9645 100.783 28.2934 100.275 28.5334C99.7671 28.7703 99.1858 28.8887 98.5312 28.8887Z" fill="#FAFAFA"/>
<path d="M63.2972 54.1186C62.7474 54.1186 62.2915 53.6627 62.2915 53.1128V50.4308C62.2915 46.2066 61.098 43.3904 55.2511 43.3904C49.4043 43.3904 48.2108 46.2066 48.2108 50.4308V53.1128C48.2108 53.6627 47.7548 54.1186 47.205 54.1186C46.6552 54.1186 46.1992 53.6627 46.1992 53.1128V50.4308C46.1992 46.5418 47.1379 41.3789 55.2511 41.3789C63.3643 41.3789 64.303 46.5418 64.303 50.4308V53.1128C64.303 53.6627 63.8471 54.1186 63.2972 54.1186Z" fill="white"/>
<path d="M61.957 70.2093H48.5468C42.6329 70.2093 40.8359 68.4123 40.8359 62.4984V59.8163C40.8359 53.9024 42.6329 52.1055 48.5468 52.1055H61.957C67.8709 52.1055 69.6679 53.9024 69.6679 59.8163V62.4984C69.6679 68.4123 67.8709 70.2093 61.957 70.2093ZM48.5468 54.117C43.746 54.117 42.8475 55.0289 42.8475 59.8163V62.4984C42.8475 67.2858 43.746 68.1977 48.5468 68.1977H61.957C66.7579 68.1977 67.6564 67.2858 67.6564 62.4984V59.8163C67.6564 55.0289 66.7579 54.117 61.957 54.117H48.5468Z" fill="white"/>
<path d="M49.8869 62.5009C49.7126 62.5009 49.5382 62.4607 49.3773 62.3936C49.203 62.3266 49.0689 62.2327 48.9348 62.112C48.6934 61.8572 48.5459 61.5219 48.5459 61.1599C48.5459 60.9855 48.5861 60.8112 48.6532 60.6503C48.7202 60.4759 48.8141 60.3418 48.9348 60.2077C49.0689 60.087 49.203 59.9931 49.3773 59.9261C49.8601 59.7115 50.4635 59.8323 50.839 60.2077C50.9597 60.3418 51.0536 60.4893 51.1207 60.6503C51.1877 60.8112 51.2279 60.9855 51.2279 61.1599C51.2279 61.5085 51.0804 61.8572 50.839 62.112C50.5842 62.3534 50.2356 62.5009 49.8869 62.5009Z" fill="white"/>
<path d="M55.2512 62.5035C54.9025 62.5035 54.5539 62.356 54.2991 62.1146C54.0577 61.8598 53.9102 61.5246 53.9102 61.1625C53.9102 60.9882 53.937 60.8139 54.0174 60.6529C54.0845 60.492 54.1784 60.3445 54.2991 60.2104C54.6075 59.902 55.0768 59.7544 55.506 59.8483C55.5998 59.8617 55.6803 59.8885 55.7608 59.9288C55.8412 59.9556 55.9217 59.9959 56.0021 60.0495C56.0692 60.0897 56.1362 60.1568 56.2033 60.2104C56.324 60.3445 56.4179 60.492 56.4849 60.6529C56.552 60.8139 56.5922 60.9882 56.5922 61.1625C56.5922 61.5246 56.4447 61.8598 56.2033 62.1146C56.1362 62.1683 56.0692 62.2219 56.0021 62.2756C55.9217 62.3292 55.8412 62.3695 55.7608 62.3963C55.6803 62.4365 55.5998 62.4633 55.506 62.4767C55.4255 62.4902 55.3316 62.5035 55.2512 62.5035Z" fill="white"/>
<path d="M60.6154 62.5035C60.2534 62.5035 59.9181 62.356 59.6633 62.1146C59.5426 61.9805 59.4487 61.833 59.3817 61.6721C59.3146 61.5112 59.2744 61.3369 59.2744 61.1625C59.2744 60.8139 59.4219 60.4652 59.6633 60.2104C59.7304 60.1568 59.7974 60.1031 59.8645 60.0495C59.9449 59.9959 60.0254 59.9556 60.1058 59.9288C60.1863 59.8885 60.2668 59.8617 60.3472 59.8483C60.7898 59.7544 61.2457 59.902 61.5675 60.2104C61.8089 60.4652 61.9565 60.8005 61.9565 61.1625C61.9565 61.3369 61.9162 61.5112 61.8492 61.6721C61.7821 61.8465 61.6882 61.9805 61.5675 62.1146C61.3128 62.356 60.9641 62.5035 60.6154 62.5035Z" fill="white"/>
</svg>
